<svg xmlns="http://www.w3.org/2000/svg" viewBox="0 0 64 64" width="64" height="64"><defs>
  <linearGradient id="m-bg" x1="0" y1="0" x2="1" y2="1">
    <stop offset="0" stop-color="#d81436"/><stop offset="1" stop-color="#a30d25"/>
  </linearGradient></defs>
  <g id="m">
    <rect x="0" y="0" width="64" height="64" rx="16.00" fill="url(#m-bg)"/>
    <polygon points="16.50,24.75 32.00,33.50 32.00,52.00 16.50,43.25" fill="#ffffff" fill-opacity=".82"/>
    <polygon points="32.00,33.50 47.50,24.75 47.50,43.25 32.00,52.00" fill="#ffffff" fill-opacity=".62"/>
    <polygon points="32.00,16.00 47.50,24.75 32.00,33.50 16.50,24.75" fill="#ffffff"/>
    <polygon points="26.42,19.15 41.92,27.90 37.58,30.35 22.08,21.60" fill="#f5c542"/>
    <polygon points="41.92,27.90 37.58,30.35 37.58,48.85 41.92,46.40" fill="#d9a52a"/>
    <polyline points="16.50,24.75 32.00,33.50 47.50,24.75" fill="none" stroke="#c8102e" stroke-opacity=".18" stroke-width="1.20" stroke-linejoin="round"/>
    <line x1="32.00" y1="33.50" x2="32.00" y2="52.00" stroke="#c8102e" stroke-opacity=".18" stroke-width="1.20"/>
  </g></svg>