<svg xmlns="http://www.w3.org/2000/svg" viewBox="0 0 491 56" width="491" height="56"><defs>
  <linearGradient id="m-bg" x1="0" y1="0" x2="1" y2="1">
    <stop offset="0" stop-color="#d81436"/><stop offset="1" stop-color="#a30d25"/>
  </linearGradient></defs>
  <g id="m">
    <rect x="0" y="0" width="56" height="56" rx="14.00" fill="url(#m-bg)"/>
    <polygon points="14.44,21.66 28.00,29.31 28.00,45.50 14.44,37.84" fill="#ffffff" fill-opacity=".82"/>
    <polygon points="28.00,29.31 41.56,21.66 41.56,37.84 28.00,45.50" fill="#ffffff" fill-opacity=".62"/>
    <polygon points="28.00,14.00 41.56,21.66 28.00,29.31 14.44,21.66" fill="#ffffff"/>
    <polygon points="23.12,16.76 36.68,24.41 32.88,26.56 19.32,18.90" fill="#f5c542"/>
    <polygon points="36.68,24.41 32.88,26.56 32.88,42.74 36.68,40.60" fill="#d9a52a"/>
    <polyline points="14.44,21.66 28.00,29.31 41.56,21.66" fill="none" stroke="#c8102e" stroke-opacity=".18" stroke-width="1.05" stroke-linejoin="round"/>
    <line x1="28.00" y1="29.31" x2="28.00" y2="45.50" stroke="#c8102e" stroke-opacity=".18" stroke-width="1.05"/>
  </g><path d="M 82.96 42.4 L 75.68 42.4 L 75.68 20.32 L 82.96 20.32 L 82.96 42.4 M 82.96 25.6 L 72.88 25.6 L 72.88 20.32 L 82.96 20.32 L 82.96 25.6 M 78.68 18.56 L 78.68 18.56 Q 76.68 18.56 75.74 17.54 Q 74.8 16.52 74.8 14.92 L 74.8 14.92 Q 74.8 13.32 75.74 12.3 Q 76.68 11.28 78.64 11.28 L 78.64 11.28 Q 80.64 11.28 81.56 12.3 Q 82.48 13.32 82.48 14.92 L 82.48 14.92 Q 82.48 16.52 81.56 17.54 Q 80.64 18.56 78.68 18.56 M 95.6 42.4 L 88.32 42.4 L 88.32 20.32 L 94.08 20.32 L 94.08 29.84 L 93.76 29.84 Q 93.76 26.4 94.62 24.14 Q 95.48 21.88 97.16 20.74 Q 98.84 19.6 101.28 19.6 L 101.28 19.6 L 101.6 19.6 Q 104.08 19.6 105.74 20.74 Q 107.4 21.88 108.26 24.14 Q 109.12 26.4 109.12 29.84 L 109.12 29.84 L 107.44 29.84 Q 107.44 26.4 108.3 24.14 Q 109.16 21.88 110.84 20.74 Q 112.52 19.6 114.96 19.6 L 114.96 19.6 L 115.28 19.6 Q 117.76 19.6 119.46 20.74 Q 121.16 21.88 122.06 24.14 Q 122.96 26.4 122.96 29.84 L 122.96 29.84 L 122.96 42.4 L 115.68 42.4 L 115.68 29.64 Q 115.68 28.12 114.86 27.1 Q 114.04 26.08 112.52 26.08 L 112.52 26.08 Q 111 26.08 110.14 27.1 Q 109.28 28.12 109.28 29.72 L 109.28 29.72 L 109.28 42.4 L 102 42.4 L 102 29.64 Q 102 28.12 101.18 27.1 Q 100.36 26.08 98.84 26.08 L 98.84 26.08 Q 97.32 26.08 96.46 27.1 Q 95.6 28.12 95.6 29.72 L 95.6 29.72 L 95.6 42.4 M 135.12 50.4 L 127.84 50.4 L 127.84 20.32 L 133.6 20.32 L 133.6 29.84 L 132.96 29.84 Q 133.08 26.6 134.26 24.32 Q 135.44 22.04 137.48 20.86 Q 139.52 19.68 142.16 19.68 L 142.16 19.68 Q 144.44 19.68 146.28 20.5 Q 148.12 21.32 149.44 22.82 Q 150.76 24.32 151.46 26.36 Q 152.16 28.4 152.16 30.84 L 152.16 30.84 L 152.16 31.8 Q 152.16 34.24 151.52 36.3 Q 150.88 38.36 149.6 39.9 Q 148.32 41.44 146.46 42.28 Q 144.6 43.12 142.2 43.12 L 142.2 43.12 Q 139.64 43.12 137.68 42.1 Q 135.72 41.08 134.58 39.02 Q 133.44 36.96 133.36 33.84 L 133.36 33.84 L 135.12 36 L 135.12 50.4 M 140 37.12 L 140 37.12 Q 141.44 37.12 142.54 36.38 Q 143.64 35.64 144.26 34.32 Q 144.88 33 144.88 31.32 L 144.88 31.32 Q 144.88 29.6 144.26 28.34 Q 143.64 27.08 142.56 26.38 Q 141.48 25.68 140 25.68 L 140 25.68 Q 138.68 25.68 137.54 26.28 Q 136.4 26.88 135.68 28.04 Q 134.96 29.2 134.96 30.84 L 134.96 30.84 L 134.96 32.2 Q 134.96 33.76 135.72 34.86 Q 136.48 35.96 137.64 36.54 Q 138.8 37.12 140 37.12 M 167.16 43.2 L 167.16 43.2 Q 164.24 43.2 161.96 42.32 Q 159.68 41.44 158.1 39.88 Q 156.52 38.32 155.7 36.28 Q 154.88 34.24 154.88 31.92 L 154.88 31.92 L 154.88 30.96 Q 154.88 28.56 155.74 26.48 Q 156.6 24.4 158.2 22.84 Q 159.8 21.28 162.08 20.4 Q 164.36 19.52 167.16 19.52 L 167.16 19.52 Q 170 19.52 172.26 20.4 Q 174.52 21.28 176.12 22.84 Q 177.72 24.4 178.58 26.48 Q 179.44 28.56 179.44 30.96 L 179.44 30.96 L 179.44 31.92 Q 179.44 34.24 178.62 36.28 Q 177.8 38.32 176.22 39.88 Q 174.64 41.44 172.36 42.32 Q 170.08 43.2 167.16 43.2 M 167.16 37.12 L 167.16 37.12 Q 168.84 37.12 169.94 36.4 Q 171.04 35.68 171.6 34.38 Q 172.16 33.08 172.16 31.44 L 172.16 31.44 Q 172.16 29.72 171.58 28.42 Q 171 27.12 169.88 26.36 Q 168.76 25.6 167.16 25.6 L 167.16 25.6 Q 165.56 25.6 164.44 26.36 Q 163.32 27.12 162.74 28.42 Q 162.16 29.72 162.16 31.44 L 162.16 31.44 Q 162.16 33.08 162.72 34.38 Q 163.28 35.68 164.4 36.4 Q 165.52 37.12 167.16 37.12 M 190.72 42.4 L 183.44 42.4 L 183.44 20.32 L 189.2 20.32 L 189.2 29.92 L 189.12 29.92 Q 189.12 25.28 191.06 22.64 Q 193 20 196.64 20 L 196.64 20 L 197.52 20 L 197.52 26.24 L 195.84 26.24 Q 193.4 26.24 192.06 27.56 Q 190.72 28.88 190.72 31.36 L 190.72 31.36 L 190.72 42.4 M 214.48 42.72 L 211.48 42.72 Q 207.88 42.72 205.74 41.84 Q 203.6 40.96 202.64 38.92 Q 201.68 36.88 201.68 33.4 L 201.68 33.4 L 201.72 14.56 L 208.44 14.56 L 208.4 33.6 Q 208.4 35.08 209.18 35.86 Q 209.96 36.64 211.44 36.64 L 211.44 36.64 L 214.48 36.64 L 214.48 42.72 M 214.48 25.6 L 198.48 25.6 L 198.48 20.32 L 214.48 20.32 L 214.48 25.6" fill="#121418" fill-rule="nonzero"/><path d="M 225.6 42.4 L 218.88 42.4 L 218.88 20.4 Q 218.88 16.52 221.12 14.62 Q 223.36 12.72 227.76 12.72 L 227.76 12.72 L 230.6 12.72 L 230.6 18.08 L 227.6 18.08 Q 226.64 18.08 226.12 18.6 Q 225.6 19.12 225.6 20.08 L 225.6 20.08 L 225.6 42.4 M 230.92 26.08 L 216.4 26.08 L 216.4 20.8 L 230.92 20.8 L 230.92 26.08 M 240.92 42.4 L 233.64 42.4 L 233.64 20.32 L 239.4 20.32 L 239.4 29.92 L 239.32 29.92 Q 239.32 25.28 241.26 22.64 Q 243.2 20 246.84 20 L 246.84 20 L 247.72 20 L 247.72 26.24 L 246.04 26.24 Q 243.6 26.24 242.26 27.56 Q 240.92 28.88 240.92 31.36 L 240.92 31.36 L 240.92 42.4 M 261.52 43.2 L 261.52 43.2 Q 258.6 43.2 256.32 42.32 Q 254.04 41.44 252.46 39.88 Q 250.88 38.32 250.06 36.28 Q 249.24 34.24 249.24 31.92 L 249.24 31.92 L 249.24 30.96 Q 249.24 28.56 250.1 26.48 Q 250.96 24.4 252.56 22.84 Q 254.16 21.28 256.44 20.4 Q 258.72 19.52 261.52 19.52 L 261.52 19.52 Q 264.36 19.52 266.62 20.4 Q 268.88 21.28 270.48 22.84 Q 272.08 24.4 272.94 26.48 Q 273.8 28.56 273.8 30.96 L 273.8 30.96 L 273.8 31.92 Q 273.8 34.24 272.98 36.28 Q 272.16 38.32 270.58 39.88 Q 269 41.44 266.72 42.32 Q 264.44 43.2 261.52 43.2 M 261.52 37.12 L 261.52 37.12 Q 263.2 37.12 264.3 36.4 Q 265.4 35.68 265.96 34.38 Q 266.52 33.08 266.52 31.44 L 266.52 31.44 Q 266.52 29.72 265.94 28.42 Q 265.36 27.12 264.24 26.36 Q 263.12 25.6 261.52 25.6 L 261.52 25.6 Q 259.92 25.6 258.8 26.36 Q 257.68 27.12 257.1 28.42 Q 256.52 29.72 256.52 31.44 L 256.52 31.44 Q 256.52 33.08 257.08 34.38 Q 257.64 35.68 258.76 36.4 Q 259.88 37.12 261.52 37.12 M 285.08 42.4 L 277.8 42.4 L 277.8 20.32 L 283.56 20.32 L 283.56 29.84 L 283.24 29.84 Q 283.24 26.4 284.1 24.14 Q 284.96 21.88 286.64 20.74 Q 288.32 19.6 290.76 19.6 L 290.76 19.6 L 291.08 19.6 Q 293.56 19.6 295.22 20.74 Q 296.88 21.88 297.74 24.14 Q 298.6 26.4 298.6 29.84 L 298.6 29.84 L 296.92 29.84 Q 296.92 26.4 297.78 24.14 Q 298.64 21.88 300.32 20.74 Q 302 19.6 304.44 19.6 L 304.44 19.6 L 304.76 19.6 Q 307.24 19.6 308.94 20.74 Q 310.64 21.88 311.54 24.14 Q 312.44 26.4 312.44 29.84 L 312.44 29.84 L 312.44 42.4 L 305.16 42.4 L 305.16 29.64 Q 305.16 28.12 304.34 27.1 Q 303.52 26.08 302 26.08 L 302 26.08 Q 300.48 26.08 299.62 27.1 Q 298.76 28.12 298.76 29.72 L 298.76 29.72 L 298.76 42.4 L 291.48 42.4 L 291.48 29.64 Q 291.48 28.12 290.66 27.1 Q 289.84 26.08 288.32 26.08 L 288.32 26.08 Q 286.8 26.08 285.94 27.1 Q 285.08 28.12 285.08 29.72 L 285.08 29.72 L 285.08 42.4" fill="#c8102e" fill-rule="nonzero"/><path d="M 327.4 43.2 L 327.4 43.2 Q 324.52 43.2 322.4 42.26 Q 320.28 41.32 318.86 39.72 Q 317.44 38.12 316.74 36.08 Q 316.04 34.04 316.04 31.84 L 316.04 31.84 L 316.04 31.04 Q 316.04 28.72 316.78 26.64 Q 317.52 24.56 318.96 22.96 Q 320.4 21.36 322.52 20.44 Q 324.64 19.52 327.4 19.52 L 327.4 19.52 Q 330.44 19.52 332.76 20.72 Q 335.08 21.92 336.46 24.02 Q 337.84 26.12 338 28.84 L 338 28.84 L 330.88 28.84 Q 330.76 27.52 329.9 26.6 Q 329.04 25.68 327.4 25.68 L 327.4 25.68 Q 326 25.68 325.1 26.4 Q 324.2 27.12 323.76 28.4 Q 323.32 29.68 323.32 31.44 L 323.32 31.44 Q 323.32 33.08 323.7 34.36 Q 324.08 35.64 324.98 36.34 Q 325.88 37.04 327.4 37.04 L 327.4 37.04 Q 328.52 37.04 329.28 36.64 Q 330.04 36.24 330.48 35.5 Q 330.92 34.76 331.04 33.76 L 331.04 33.76 L 338.16 33.76 Q 338 36.56 336.58 38.68 Q 335.16 40.8 332.8 42 Q 330.44 43.2 327.4 43.2 M 349.12 42.4 L 341.84 42.4 L 341.84 13.2 L 349.12 13.2 L 349.12 29.84 L 348.16 29.84 Q 348.16 26.48 349 24.2 Q 349.84 21.92 351.46 20.76 Q 353.08 19.6 355.48 19.6 L 355.48 19.6 L 355.8 19.6 Q 359.4 19.6 361.3 22.2 Q 363.2 24.8 363.2 29.84 L 363.2 29.84 L 363.2 42.4 L 355.92 42.4 L 355.92 29.56 Q 355.92 28.04 355 27.06 Q 354.08 26.08 352.56 26.08 L 352.56 26.08 Q 351.04 26.08 350.08 27.06 Q 349.12 28.04 349.12 29.64 L 349.12 29.64 L 349.12 42.4 M 376.4 42.4 L 369.12 42.4 L 369.12 20.32 L 376.4 20.32 L 376.4 42.4 M 376.4 25.6 L 366.32 25.6 L 366.32 20.32 L 376.4 20.32 L 376.4 25.6 M 372.12 18.56 L 372.12 18.56 Q 370.12 18.56 369.18 17.54 Q 368.24 16.52 368.24 14.92 L 368.24 14.92 Q 368.24 13.32 369.18 12.3 Q 370.12 11.28 372.08 11.28 L 372.08 11.28 Q 374.08 11.28 375 12.3 Q 375.92 13.32 375.92 14.92 L 375.92 14.92 Q 375.92 16.52 375 17.54 Q 374.08 18.56 372.12 18.56 M 389.04 42.4 L 381.76 42.4 L 381.76 20.32 L 387.52 20.32 L 387.52 29.8 L 387.2 29.8 Q 387.2 26.36 388.08 24.1 Q 388.96 21.84 390.7 20.72 Q 392.44 19.6 394.92 19.6 L 394.92 19.6 L 395.24 19.6 Q 399 19.6 401.06 22.1 Q 403.12 24.6 403.12 29.76 L 403.12 29.76 L 403.12 42.4 L 395.84 42.4 L 395.84 29.56 Q 395.84 28.04 394.94 27.06 Q 394.04 26.08 392.48 26.08 L 392.48 26.08 Q 390.92 26.08 389.98 27.06 Q 389.04 28.04 389.04 29.64 L 389.04 29.64 L 389.04 42.4 M 427.12 42.4 L 421.36 42.4 L 421.36 35.92 L 420.16 35.92 L 420.16 29 Q 420.16 27.48 419.46 26.74 Q 418.76 26 417.16 26 L 417.16 26 Q 416.4 26 414.92 26.04 Q 413.44 26.08 411.8 26.16 Q 410.16 26.24 408.8 26.32 L 408.8 26.32 L 408.8 20.24 Q 409.76 20.16 411.08 20.08 Q 412.4 20 413.82 19.96 Q 415.24 19.92 416.44 19.92 L 416.44 19.92 Q 419.84 19.92 422.22 20.92 Q 424.6 21.92 425.86 23.92 Q 427.12 25.92 427.12 29 L 427.12 29 L 427.12 42.4 M 414.36 42.96 L 414.36 42.96 Q 412.04 42.96 410.24 42.12 Q 408.44 41.28 407.42 39.7 Q 406.4 38.12 406.4 35.92 L 406.4 35.92 Q 406.4 33.44 407.72 31.9 Q 409.04 30.36 411.36 29.64 Q 413.68 28.92 416.68 28.92 L 416.68 28.92 L 420.96 28.92 L 420.96 32.68 L 416.68 32.68 Q 415.2 32.68 414.4 33.42 Q 413.6 34.16 413.6 35.4 L 413.6 35.4 Q 413.6 36.6 414.4 37.34 Q 415.2 38.08 416.68 38.08 L 416.68 38.08 Q 417.64 38.08 418.38 37.74 Q 419.12 37.4 419.6 36.56 Q 420.08 35.72 420.16 34.24 L 420.16 34.24 L 421.84 35.84 Q 421.64 38.12 420.74 39.7 Q 419.84 41.28 418.26 42.12 Q 416.68 42.96 414.36 42.96" fill="#121418" fill-rule="nonzero"/><path d="M 435.39 42.4 L 432.15 42.4 L 432.15 39.07 L 435.39 39.07 L 435.39 42.4 M 442.3 42.75 L 442.3 42.75 Q 439.97 42.75 438.65 41.77 Q 437.32 40.78 437.26 39.03 L 437.26 39.03 L 439.86 39.03 Q 439.92 39.61 440.51 40.09 Q 441.09 40.57 442.34 40.57 L 442.34 40.57 Q 443.38 40.57 443.99 40.2 Q 444.6 39.82 444.6 39.18 L 444.6 39.18 Q 444.6 38.61 444.14 38.28 Q 443.67 37.95 442.55 37.84 L 442.55 37.84 L 441.55 37.74 Q 439.65 37.53 438.64 36.66 Q 437.62 35.79 437.62 34.33 L 437.62 34.33 Q 437.62 33.16 438.2 32.37 Q 438.78 31.58 439.81 31.18 Q 440.84 30.77 442.17 30.77 L 442.17 30.77 Q 444.25 30.77 445.54 31.69 Q 446.83 32.6 446.89 34.37 L 446.89 34.37 L 444.29 34.37 Q 444.25 33.79 443.71 33.37 Q 443.17 32.96 442.15 32.96 L 442.15 32.96 Q 441.24 32.96 440.74 33.31 Q 440.24 33.66 440.24 34.23 L 440.24 34.23 Q 440.24 34.77 440.64 35.06 Q 441.05 35.35 441.96 35.45 L 441.96 35.45 L 442.96 35.56 Q 444.96 35.76 446.09 36.66 Q 447.23 37.55 447.23 39.07 L 447.23 39.07 Q 447.23 40.2 446.61 41.02 Q 446 41.84 444.9 42.3 Q 443.79 42.75 442.3 42.75 M 452.51 42.4 L 449.62 42.4 L 449.62 27.22 L 452.51 27.22 L 452.51 36.08 L 452.01 36.08 Q 452.01 34.37 452.45 33.19 Q 452.88 32 453.75 31.38 Q 454.61 30.75 455.94 30.75 L 455.94 30.75 L 456.07 30.75 Q 458 30.75 459 32.08 Q 460 33.41 460 35.95 L 460 35.95 L 460 42.4 L 457.11 42.4 L 457.11 35.68 Q 457.11 34.6 456.49 33.98 Q 455.88 33.35 454.88 33.35 L 454.88 33.35 Q 453.82 33.35 453.16 34.05 Q 452.51 34.75 452.51 35.87 L 452.51 35.87 L 452.51 42.4 M 468.52 42.8 L 468.52 42.8 Q 467.03 42.8 465.88 42.32 Q 464.74 41.84 463.95 41.02 Q 463.16 40.2 462.75 39.16 Q 462.35 38.12 462.35 36.99 L 462.35 36.99 L 462.35 36.56 Q 462.35 35.39 462.77 34.34 Q 463.2 33.29 464 32.47 Q 464.8 31.65 465.95 31.18 Q 467.09 30.71 468.52 30.71 L 468.52 30.71 Q 469.96 30.71 471.1 31.18 Q 472.25 31.65 473.05 32.47 Q 473.85 33.29 474.27 34.34 Q 474.68 35.39 474.68 36.56 L 474.68 36.56 L 474.68 36.99 Q 474.68 38.12 474.28 39.16 Q 473.87 40.2 473.08 41.02 Q 472.29 41.84 471.15 42.32 Q 470 42.8 468.52 42.8 M 468.52 40.32 L 468.52 40.32 Q 469.59 40.32 470.31 39.85 Q 471.04 39.38 471.42 38.58 Q 471.79 37.78 471.79 36.76 L 471.79 36.76 Q 471.79 35.72 471.41 34.92 Q 471.02 34.12 470.28 33.65 Q 469.54 33.19 468.52 33.19 L 468.52 33.19 Q 467.51 33.19 466.77 33.65 Q 466.03 34.12 465.63 34.92 Q 465.24 35.72 465.24 36.76 L 465.24 36.76 Q 465.24 37.78 465.62 38.58 Q 466.01 39.38 466.74 39.85 Q 467.46 40.32 468.52 40.32 M 480.11 46.56 L 477.22 46.56 L 477.22 31.11 L 479.51 31.11 L 479.51 35.97 L 479.15 35.95 Q 479.24 34.23 479.87 33.06 Q 480.51 31.9 481.57 31.32 Q 482.63 30.75 483.94 30.75 L 483.94 30.75 Q 485.14 30.75 486.11 31.19 Q 487.08 31.63 487.78 32.42 Q 488.47 33.21 488.85 34.26 Q 489.22 35.31 489.22 36.51 L 489.22 36.51 L 489.22 36.95 Q 489.22 38.18 488.86 39.23 Q 488.49 40.28 487.8 41.08 Q 487.1 41.88 486.12 42.33 Q 485.14 42.77 483.94 42.77 L 483.94 42.77 Q 482.67 42.77 481.62 42.24 Q 480.57 41.71 479.92 40.6 Q 479.28 39.49 479.2 37.72 L 479.2 37.72 L 480.11 39.11 L 480.11 46.56 M 483.21 40.34 L 483.21 40.34 Q 484.15 40.34 484.84 39.88 Q 485.54 39.43 485.93 38.6 Q 486.33 37.78 486.33 36.74 L 486.33 36.74 Q 486.33 35.66 485.93 34.87 Q 485.54 34.08 484.84 33.63 Q 484.15 33.19 483.21 33.19 L 483.21 33.19 Q 482.36 33.19 481.64 33.56 Q 480.92 33.93 480.47 34.66 Q 480.03 35.39 480.03 36.41 L 480.03 36.41 L 480.03 37.24 Q 480.03 38.22 480.48 38.91 Q 480.94 39.59 481.67 39.97 Q 482.4 40.34 483.21 40.34" fill="#8a8f98" fill-rule="nonzero"/></svg>